<svg xmlns="http://www.w3.org/2000/svg" xmlns:xlink="http://www.w3.org/1999/xlink" width="500" zoomAndPan="magnify" viewBox="0 0 375 374.999991" height="500" preserveAspectRatio="xMidYMid meet" version="1.0"><defs><clipPath id="73c04e6db3"><path d="M 58.914062 56.535156 L 316.082031 56.535156 L 316.082031 314 L 58.914062 314 Z M 58.914062 56.535156 " clip-rule="nonzero"/></clipPath></defs><g clip-path="url(#73c04e6db3)"><path fill="#000000" d="M 316.035156 184.164062 L 315 201.621094 C 309.714844 236.820312 293.65625 265.066406 266.820312 286.359375 C 239.796875 307.636719 207.84375 316.429688 170.964844 312.742188 C 135.753906 307.460938 107.496094 291.40625 86.199219 264.578125 C 79.371094 255.90625 73.730469 246.441406 69.277344 236.1875 L 63.636719 220.359375 C 60.519531 209.464844 58.898438 198.082031 58.769531 186.214844 C 59.398438 149.777344 71.714844 119.371094 95.71875 94.988281 C 119.722656 70.605469 149.941406 57.808594 186.375 56.597656 C 222.824219 57.226562 253.246094 69.539062 277.636719 93.539062 C 302.027344 117.535156 314.828125 147.742188 316.035156 184.164062 " fill-opacity="1" fill-rule="nonzero"/></g><path fill="#fefefe" d="M 187.710938 127.332031 L 179.207031 128.457031 C 162.171875 132.285156 148.917969 141.140625 139.453125 155.015625 C 130 168.980469 126.828125 184.914062 129.9375 202.816406 C 133.769531 219.847656 142.625 233.09375 156.503906 242.558594 C 160.988281 245.585938 165.820312 248.011719 170.996094 249.824219 L 178.9375 252.023438 C 183.359375 253.25 190.003906 253.550781 198.875 252.925781 C 208.277344 252.230469 218.222656 248.390625 228.707031 241.398438 L 218.785156 230.71875 C 203.199219 240.480469 186.925781 241.488281 169.960938 233.746094 C 154.15625 225.480469 145.242188 212.027344 143.214844 193.386719 C 142.832031 174.640625 149.949219 160.15625 164.5625 149.933594 C 168.035156 147.582031 171.796875 145.703125 175.84375 144.292969 L 182.078125 142.597656 C 187.679688 141.765625 190.824219 141.441406 191.511719 141.628906 C 200.425781 141.195312 209.863281 144.160156 219.824219 150.53125 L 228.777344 139.195312 C 216.976562 130.589844 203.289062 126.632812 187.710938 127.332031 Z M 187.710938 127.332031 " fill-opacity="1" fill-rule="nonzero"/></svg>