<svg xmlns="http://www.w3.org/2000/svg" xmlns:xlink="http://www.w3.org/1999/xlink" width="500" zoomAndPan="magnify" viewBox="0 0 375 374.999991" height="500" preserveAspectRatio="xMidYMid meet" version="1.0"><defs><clipPath id="b28cea71d1"><path d="M 53.460938 51.074219 L 321.210938 51.074219 L 321.210938 320 L 53.460938 320 Z M 53.460938 51.074219 " clip-rule="nonzero"/></clipPath></defs><g clip-path="url(#b28cea71d1)"><path fill="#000000" d="M 321.164062 184.1875 L 320.085938 202.398438 C 314.585938 239.109375 297.867188 268.570312 269.9375 290.777344 C 241.8125 312.96875 208.554688 322.140625 170.171875 318.296875 C 133.523438 312.785156 104.113281 296.039062 81.945312 268.058594 C 74.839844 259.015625 68.96875 249.144531 64.332031 238.449219 L 58.460938 221.941406 C 55.21875 210.578125 53.53125 198.707031 53.398438 186.328125 C 54.050781 148.324219 66.871094 116.609375 91.855469 91.179688 C 116.839844 65.75 148.292969 52.402344 186.210938 51.140625 C 224.148438 51.796875 255.808594 64.640625 281.195312 89.667969 C 306.582031 114.695312 319.902344 146.203125 321.164062 184.1875 " fill-opacity="1" fill-rule="nonzero"/></g><path fill="#fefefe" d="M 161.859375 91.507812 L 161.046875 263.421875 C 161.023438 268.59375 156.816406 272.765625 151.65625 272.742188 C 146.492188 272.71875 142.324219 268.503906 142.351562 263.332031 L 143.160156 91.417969 C 143.1875 86.246094 147.390625 82.070312 152.554688 82.097656 C 157.71875 82.121094 161.882812 86.332031 161.859375 91.507812 Z M 161.859375 91.507812 " fill-opacity="1" fill-rule="nonzero"/><path fill="#fefefe" d="M 251.476562 220.21875 C 251.476562 249.648438 227.660156 273.507812 198.28125 273.507812 C 168.902344 273.507812 145.082031 249.648438 145.082031 220.21875 C 145.082031 190.785156 168.902344 166.929688 198.28125 166.929688 C 227.660156 166.929688 251.476562 190.785156 251.476562 220.21875 M 232.777344 220.21875 C 232.777344 201.132812 217.332031 185.660156 198.28125 185.660156 C 179.226562 185.660156 163.78125 201.132812 163.78125 220.21875 C 163.78125 239.304688 179.226562 254.777344 198.28125 254.777344 C 217.332031 254.777344 232.777344 239.304688 232.777344 220.21875 Z M 232.777344 220.21875 " fill-opacity="1" fill-rule="nonzero"/></svg>