<svg xmlns="http://www.w3.org/2000/svg" xmlns:xlink="http://www.w3.org/1999/xlink" width="500" zoomAndPan="magnify" viewBox="0 0 375 374.999991" height="500" preserveAspectRatio="xMidYMid meet" version="1.0"><defs><clipPath id="5d7ed2614b"><path d="M 47.441406 45 L 327.191406 45 L 327.191406 325 L 47.441406 325 Z M 47.441406 45 " clip-rule="nonzero"/></clipPath></defs><g clip-path="url(#5d7ed2614b)"><path fill="#000000" d="M 327.132812 183.914062 L 326.007812 202.921875 C 320.261719 241.25 302.796875 272.003906 273.617188 295.1875 C 244.230469 318.355469 209.484375 327.929688 169.382812 323.914062 C 131.09375 318.164062 100.371094 300.679688 77.207031 271.472656 C 69.785156 262.027344 63.652344 251.722656 58.808594 240.558594 L 52.675781 223.328125 C 49.285156 211.464844 47.523438 199.070312 47.382812 186.144531 C 48.066406 146.472656 61.460938 113.363281 87.5625 86.816406 C 113.664062 60.269531 146.527344 46.335938 186.144531 45.019531 C 225.777344 45.703125 258.855469 59.109375 285.375 85.238281 C 311.898438 111.367188 325.816406 144.257812 327.132812 183.914062 " fill-opacity="1" fill-rule="nonzero"/></g><path fill="#fefefe" d="M 215.269531 86.304688 L 216.117188 265.777344 C 216.140625 271.175781 220.535156 275.53125 225.929688 275.507812 C 231.324219 275.480469 235.675781 271.082031 235.652344 265.683594 L 234.804688 86.210938 C 234.777344 80.8125 230.386719 76.457031 224.992188 76.480469 C 219.597656 76.507812 215.246094 80.90625 215.269531 86.304688 Z M 215.269531 86.304688 " fill-opacity="1" fill-rule="nonzero"/><path fill="#fefefe" d="M 121.640625 220.675781 C 121.640625 251.398438 146.523438 276.304688 177.21875 276.304688 C 207.914062 276.304688 232.796875 251.398438 232.796875 220.675781 C 232.796875 189.949219 207.914062 165.042969 177.21875 165.042969 C 146.523438 165.042969 121.640625 189.949219 121.640625 220.675781 M 141.175781 220.675781 C 141.175781 200.75 157.3125 184.597656 177.21875 184.597656 C 197.125 184.597656 213.261719 200.75 213.261719 220.675781 C 213.261719 240.597656 197.125 256.75 177.21875 256.75 C 157.3125 256.75 141.175781 240.597656 141.175781 220.675781 Z M 141.175781 220.675781 " fill-opacity="1" fill-rule="nonzero"/></svg>