<svg xmlns="http://www.w3.org/2000/svg" xmlns:xlink="http://www.w3.org/1999/xlink" width="500" zoomAndPan="magnify" viewBox="0 0 375 374.999991" height="500" preserveAspectRatio="xMidYMid meet" version="1.0"><defs><clipPath id="cffffed5a9"><path d="M 53.234375 50.84375 L 321.734375 50.84375 L 321.734375 319 L 53.234375 319 Z M 53.234375 50.84375 " clip-rule="nonzero"/></clipPath></defs><g clip-path="url(#cffffed5a9)"><path fill="#000000" d="M 321.683594 183.957031 L 320.601562 202.167969 C 315.085938 238.878906 298.324219 268.339844 270.316406 290.546875 C 242.109375 312.738281 208.761719 321.910156 170.273438 318.066406 C 133.523438 312.554688 104.03125 295.808594 81.800781 267.828125 C 74.679688 258.785156 68.792969 248.914062 64.140625 238.21875 L 58.253906 221.710938 C 55 210.347656 53.308594 198.476562 53.175781 186.097656 C 53.832031 148.09375 66.6875 116.378906 91.738281 90.949219 C 116.792969 65.519531 148.332031 52.171875 186.359375 50.910156 C 224.398438 51.566406 256.148438 64.410156 281.605469 89.4375 C 307.058594 114.464844 320.417969 145.972656 321.683594 183.957031 " fill-opacity="1" fill-rule="nonzero"/></g><path fill="#fefefe" d="M 244.230469 147.476562 L 244.230469 239.007812 C 244.230469 243.972656 240.203125 247.996094 235.238281 247.996094 C 230.269531 247.996094 226.242188 243.972656 226.242188 239.007812 L 226.242188 147.476562 C 226.242188 142.515625 230.269531 138.492188 235.238281 138.492188 C 240.203125 138.492188 244.230469 142.515625 244.230469 147.476562 Z M 244.230469 147.476562 " fill-opacity="1" fill-rule="nonzero"/><path fill="#fefefe" d="M 244.074219 186.722656 C 244.074219 220.042969 217.035156 247.050781 183.679688 247.050781 C 150.328125 247.050781 123.289062 220.042969 123.289062 186.722656 C 123.289062 153.402344 150.328125 126.390625 183.679688 126.390625 C 217.035156 126.390625 244.074219 153.402344 244.074219 186.722656 M 226.082031 186.722656 C 226.082031 163.328125 207.097656 144.363281 183.679688 144.363281 C 160.261719 144.363281 141.277344 163.328125 141.277344 186.722656 C 141.277344 210.117188 160.261719 229.082031 183.679688 229.082031 C 207.097656 229.082031 226.082031 210.117188 226.082031 186.722656 Z M 226.082031 186.722656 " fill-opacity="1" fill-rule="nonzero"/></svg>